<?xml version="1.0" standalone="no"?><!DOCTYPE svg PUBLIC "-//W3C//DTD SVG 1.1//EN" "http://www.w3.org/Graphics/SVG/1.1/DTD/svg11.dtd"><svg t="1770624245630" class="icon" viewBox="0 0 1024 1024" version="1.1" xmlns="http://www.w3.org/2000/svg" p-id="21044" xmlns:xlink="http://www.w3.org/1999/xlink" width="200" height="200"><path d="M256.4 302c-20-16-50.8-14.8-69.2 3.2-18 18-16.8 45.6 3.6 61.6 46 37.2 72 90 72 145.6 0 55.2-26.4 108.4-72.4 145.6-10.8 8.8-16 20.4-16 32.4 0 10.4 4 20.8 12.8 29.2 18 18 49.2 19.2 69.2 3.2C322.4 668.4 360.4 592 360.4 512 360.4 432 322.4 355.6 256.4 302zM441.6 158c-19.2-17.2-50-17.2-69.2 0-19.2 16.8-19.2 44.8 0 61.6 87.2 78 134.8 182 134.8 292.4 0 110.4-48 214-135.2 292.4-9.6 8.4-14.4 19.6-14.4 30.8 0 11.2 4.8 22.4 14.4 30.8 19.2 16.8 50 16.8 69.2 0 105.6-94.8 163.6-220.4 163.6-353.6C605.2 378.4 547.2 252.8 441.6 158zM625.6 14C606.8-3.6 576-4 556.4 12.4c-19.6 16.8-20 44.4-1.6 61.6C682 192.4 752 347.6 752 512c0 164-70 319.6-197.2 437.6-9.2 8.4-13.6 19.2-13.6 30 0 11.6 5.2 22.8 15.2 31.6 19.6 16.8 50.4 16 69.2-1.2 144.8-134.8 224.4-311.6 224.4-498C850 325.2 770 148.4 625.6 14z" p-id="21045" fill="#ea5947"></path></svg>