<?xml version="1.0" standalone="no"?><!DOCTYPE svg PUBLIC "-//W3C//DTD SVG 1.1//EN" "http://www.w3.org/Graphics/SVG/1.1/DTD/svg11.dtd"><svg t="1770622792451" class="icon" viewBox="0 0 1024 1024" version="1.1" xmlns="http://www.w3.org/2000/svg" p-id="20866" xmlns:xlink="http://www.w3.org/1999/xlink" width="200" height="200"><path d="M862.389031 330.773769c-13.845025 0-25.101863 11.132747-25.101863 24.782771l0 116.610207c0 43.414168-8.34956 85.144242-24.747317 123.807493-16.344574 39.85098-40.9678 76.617409-71.08649 106.186552-61.08829 61.460564-142.722526 95.28426-229.728135 95.28426-42.279621 0-83.796967-8.136833-123.612492-24.233225-39.992798-16.96503-75.589225-40.861436-105.74337-70.980126-29.923689-29.640053-54.493733-66.335572-71.051035-106.080188-16.362302-38.432796-24.605498-80.145142-24.605498-123.984766l0-116.59248c0-13.667752-11.256838-24.782771-25.066408-24.782771-13.61457 0-25.066408 11.345475-25.066408 24.782771l0 116.610207c0 48.820996 9.714563 97.074718 28.771415 143.325254 18.826397 45.488263 46.179627 86.562426 81.261962 121.946126 36.181428 35.631881 77.237864 63.020566 122.24749 81.47469 33.132332 14.057752 68.143757 22.956859 104.041548 26.484592l14.057752 1.38273 0 127.618863L271.431618 974.41673c-13.986843 0-25.350045 11.11502-25.350045 24.747317 0 13.667752 11.363202 24.782771 25.350045 24.782771L753.188837 1023.946818c13.508206 0 24.481407-11.11502 24.481407-24.782771 0-13.650024-10.973201-24.747317-24.481407-24.747317L537.128454 974.41673 537.128454 847.542414l13.862752-1.524548c85.126515-9.07638 165.502112-47.650994 226.324493-108.402465 35.188699-35.560972 62.595111-76.581954 81.439236-122.194308 18.861852-44.38917 28.434596-92.607437 28.434596-143.218891l0-116.610207C887.154075 341.906516 876.039055 330.773769 862.389031 330.773769z" p-id="20867" fill="#ea5947"></path><path d="M343.049927 641.356139c44.105533 44.672807 105.601551 70.324216 168.693027 70.324216 63.871477 0 123.984766-24.995499 169.402119-70.395125 45.364171-45.399626 70.35967-105.388823 70.35967-169.083027L751.504743 239.779517c0-63.871477-24.995499-124.02022-70.35967-169.384392C635.709992 24.995499 575.596704 0 511.725227 0c-63.091476 0-124.552039 25.615955-168.763936 70.395125C297.561665 115.759296 272.619348 175.90804 272.619348 239.779517l0 232.422685c0 62.559657 24.180043 121.857489 67.877848 166.689841L343.049927 641.356139z" p-id="20868" fill="#ea5947"></path></svg>