<svg width="20" height="20" viewBox="0 0 20 20" fill="none" xmlns="http://www.w3.org/2000/svg">
<path d="M19.3333 1.66699H0.666667C0.266667 1.66699 0 1.93366 0 2.33366V17.667C0 18.067 0.266667 18.3337 0.666667 18.3337H19.3333C19.7333 18.3337 20 18.067 20 17.667V2.33366C20 1.93366 19.7333 1.66699 19.3333 1.66699ZM18.6667 3.00033V13.8003L13.8667 9.66699C13.6 9.40032 13.2 9.40032 12.9333 9.66699L11.2 11.267L7.46667 7.93366C7.2 7.66699 6.8 7.66699 6.53333 7.93366L1.33333 13.267V3.00033H18.6667ZM1.33333 17.0003V15.267L7.06667 9.40033L13.3333 15.0003C13.6 15.267 14 15.267 14.2667 15.0003C14.5333 14.7337 14.5333 14.3337 14.2667 14.067L12.2667 12.2003L13.6 10.867L18.8 15.4003V16.867H1.33333V17.0003Z" fill="#969696"/>
<path d="M15.2008 8.86641C16.5341 8.86641 17.6008 7.79974 17.6008 6.46641C17.6008 5.13307 16.5341 4.06641 15.2008 4.06641C13.8674 4.06641 12.8008 5.13307 12.8008 6.46641C12.8008 7.79974 13.8674 8.86641 15.2008 8.86641ZM15.2008 5.39974C15.8674 5.39974 16.2674 5.93307 16.2674 6.46641C16.2674 6.99974 15.7341 7.53307 15.2008 7.53307C14.6674 7.53307 14.1341 6.99974 14.1341 6.46641C14.1341 5.93307 14.6674 5.39974 15.2008 5.39974Z" fill="#969696"/>
</svg>
