<svg xmlns="http://www.w3.org/2000/svg" width="15" height="17" viewBox="0 0 15 17" fill="none">
  <path fill-rule="evenodd" clip-rule="evenodd" d="M10.5414 5.35944C10.5414 5.35944 10.9562 4.81323 10.5414 4.40362C9.98848 3.85743 9.43549 4.26704 9.43549 4.26704L4.04382 9.59235C3.07605 10.5482 3.07605 11.9136 4.04382 12.8694C5.01156 13.8252 6.39399 13.8252 7.36176 12.8694L13.8594 6.45184C15.3802 4.94983 15.3802 2.62846 13.8594 1.12643C12.3387 -0.375476 9.98848 -0.375476 8.46775 1.12643L1.55534 7.95374C-0.518446 10.002 -0.518446 13.4156 1.55534 15.4638C3.62896 17.5121 7.08518 17.5121 9.15894 15.4638L13.8594 10.8213C13.8594 10.8213 14.2742 10.2751 13.7212 9.72892C13.1681 9.18271 12.7534 9.72892 12.7534 9.72892L8.05292 14.3714C6.53227 15.8734 4.18196 15.8734 2.66125 14.3714C1.14046 12.8694 1.14046 10.5482 2.66125 9.04613L9.57366 2.21882C10.5414 1.263 11.924 1.263 12.8917 2.21882C13.8594 3.17465 13.8594 4.54008 12.8917 5.49591L6.39399 11.9136C6.11747 12.1868 5.56444 12.1868 5.28797 11.9136C5.01156 11.6405 5.01156 11.0944 5.28797 10.8213L10.5414 5.35944Z" fill="#969696"/>
</svg>