<svg width="18" height="18" viewBox="0 0 18 18" fill="none" xmlns="http://www.w3.org/2000/svg">
<rect opacity="0.01" width="18" height="18" fill="black"/>
<path fill-rule="evenodd" clip-rule="evenodd" d="M8.57917 15.9145C8.70747 16.0428 8.8824 16.1134 9.06382 16.1102C9.43813 16.1092 9.74175 15.8068 9.74422 15.4325V9.67071H15.5051C15.8805 9.66972 16.1845 9.36568 16.1855 8.99031C16.1887 8.8089 16.118 8.63397 15.9897 8.50567C15.8614 8.37737 15.6865 8.30671 15.5051 8.30991H9.74422V2.57151C9.74422 2.19574 9.43959 1.89111 9.06382 1.89111C8.68804 1.89111 8.38342 2.19574 8.38342 2.57151V8.30991H2.645C2.26923 8.30991 1.9646 8.61454 1.9646 8.99031C1.9646 9.36609 2.26923 9.67071 2.645 9.67071H8.38342V15.4298C8.38021 15.6112 8.45087 15.7862 8.57917 15.9145ZM8.38342 9.67071H9.74422V8.30991H8.38342V9.67071Z" fill="#529FFF"/>
</svg>
