<svg width="18" height="18" viewBox="0 0 18 18" fill="none" xmlns="http://www.w3.org/2000/svg">
<rect opacity="0.01" width="18" height="18" fill="#475467"/>
<path d="M6.77719 12.6257L2.59039 7.87367C2.34614 7.5802 1.96178 7.44255 1.58677 7.51423C1.21175 7.58592 0.905259 7.85563 0.786475 8.21849C0.66769 8.58135 0.755358 8.98009 1.01539 9.25967L5.96539 14.8865C6.16186 15.1092 6.4434 15.2385 6.74039 15.2422C7.03739 15.246 7.32212 15.124 7.52419 14.9063L17.2712 4.40687C17.5406 4.13474 17.6404 3.73748 17.5316 3.37035C17.4227 3.00321 17.1226 2.7245 16.7484 2.64313C16.3742 2.56177 15.9854 2.69067 15.734 2.97947L6.77719 12.6275V12.6257Z" fill="#475467"/>
</svg>
