<svg width="16" height="16" viewBox="0 0 16 16" fill="none" xmlns="http://www.w3.org/2000/svg">
<rect opacity="0.01" width="16" height="16" fill="#475467"/>
<path d="M9.48719 8.00012L15.2562 2.23012C15.6662 1.82112 15.6662 1.15012 15.2562 0.741117C14.8462 0.331117 14.1762 0.331117 13.7662 0.741117L7.99719 6.51112L2.22719 0.740117C1.81819 0.330117 1.14719 0.330117 0.738187 0.740117C0.328187 1.15012 0.328187 1.82012 0.738187 2.23012L6.50819 8.00012L0.737188 13.7701C0.327188 14.1791 0.327188 14.8501 0.737188 15.2591C1.14719 15.6691 1.81719 15.6691 2.22719 15.2591L7.99719 9.48912L13.7672 15.2591C14.1762 15.6691 14.8472 15.6691 15.2562 15.2591C15.6662 14.8491 15.6662 14.1791 15.2562 13.7691L9.48619 8.00012H9.48719Z" fill="#475467"/>
</svg>
