<svg xmlns="http://www.w3.org/2000/svg" width="13" height="18" viewBox="0 0 13 18" fill="none">
  <path d="M11.332 8.07361C11.5198 7.96536 11.7517 7.96521 11.9395 8.07361C12.1272 8.18211 12.2422 8.38309 12.2422 8.59998C12.2276 11.6603 9.93765 14.2318 6.89941 14.599V15.8861H10.543C10.878 15.8864 11.1493 16.1576 11.1494 16.4926C11.1494 16.8277 10.878 17.0997 10.543 17.1H2.04297C1.70769 17.0999 1.43555 16.8278 1.43555 16.4926C1.4357 16.1574 1.70779 15.8862 2.04297 15.8861H5.68555V14.6713C2.52341 14.4175 0.089443 11.7723 0.0996094 8.59998C0.0996095 8.26466 0.371716 7.99255 0.707031 7.99255C1.04225 7.99267 1.31348 8.26473 1.31348 8.59998C1.31363 11.2823 3.48858 13.4563 6.1709 13.4564C8.85331 13.4564 11.0282 11.2824 11.0283 8.59998C11.0283 8.38304 11.1442 8.18209 11.332 8.07361ZM6.29199 0.0999756C8.15635 0.0999756 9.66797 1.6116 9.66797 3.47595V8.86755C9.66772 10.7317 8.15619 12.2426 6.29199 12.2426C4.42795 12.2424 2.91724 10.7316 2.91699 8.86755V3.47595C2.91699 1.61171 4.42779 0.100159 6.29199 0.0999756ZM6.29199 1.31384C5.0985 1.31399 4.13102 2.28148 4.13086 3.47498V8.86658C4.13086 10.0602 5.0984 11.0276 6.29199 11.0277C7.48572 11.0277 8.4541 10.0603 8.4541 8.86658V3.47498C8.45394 2.28139 7.48562 1.31384 6.29199 1.31384Z" fill="#969696"/>
  <path d="M11.332 8.07361L11.2821 7.98697L11.282 7.98701L11.332 8.07361ZM11.9395 8.07361L11.9895 7.98702L11.9895 7.98701L11.9395 8.07361ZM12.2422 8.59998L12.3422 8.60045V8.59999L12.2422 8.59998ZM6.89941 14.599L6.88742 14.4997L6.79941 14.5104V14.599H6.89941ZM6.89941 15.8861H6.79941V15.9861H6.89941V15.8861ZM10.543 15.8861L10.5431 15.7861H10.543V15.8861ZM11.1494 16.4926H11.2494V16.4925L11.1494 16.4926ZM10.543 17.1V17.2H10.5431L10.543 17.1ZM2.04297 17.1L2.04295 17.2H2.04297V17.1ZM1.43555 16.4926L1.33555 16.4925V16.4926H1.43555ZM2.04297 15.8861V15.7861H2.04295L2.04297 15.8861ZM5.68555 15.8861V15.9861H5.78555V15.8861H5.68555ZM5.68555 14.6713H5.78555V14.579L5.69355 14.5716L5.68555 14.6713ZM0.0996094 8.59998L0.199609 8.6003V8.59998H0.0996094ZM0.707031 7.99255L0.707066 7.89255H0.707031V7.99255ZM1.31348 8.59998H1.21348V8.59998L1.31348 8.59998ZM6.1709 13.4564L6.17089 13.5564H6.1709V13.4564ZM11.0283 8.59998L11.1283 8.59998V8.59996L11.0283 8.59998ZM6.29199 0.0999756V-2.44156e-05H6.29198L6.29199 0.0999756ZM9.66797 8.86755L9.76797 8.86757V8.86755H9.66797ZM6.29199 12.2426L6.29198 12.3426H6.29199V12.2426ZM2.91699 8.86755H2.81699V8.86757L2.91699 8.86755ZM6.29199 1.31384V1.21384H6.29198L6.29199 1.31384ZM4.13086 3.47498L4.03086 3.47496V3.47498H4.13086ZM6.29199 11.0277L6.29198 11.1277H6.29199V11.0277ZM8.4541 3.47498H8.5541V3.47496L8.4541 3.47498ZM11.332 8.07361L11.382 8.16024C11.5389 8.06978 11.7327 8.0697 11.8894 8.16021L11.9395 8.07361L11.9895 7.98701C11.7707 7.86071 11.5007 7.86093 11.2821 7.98697L11.332 8.07361ZM11.9395 8.07361L11.8894 8.1602C12.046 8.25066 12.1422 8.41848 12.1422 8.59996L12.2422 8.59998L12.3422 8.59999C12.3422 8.34771 12.2085 8.11355 11.9895 7.98702L11.9395 8.07361ZM12.2422 8.59998L12.1422 8.5995C12.1278 11.6094 9.8756 14.1386 6.88742 14.4997L6.89941 14.599L6.91141 14.6983C9.9997 14.325 12.3273 11.7112 12.3422 8.60045L12.2422 8.59998ZM6.89941 14.599H6.79941V15.8861H6.89941H6.99941V14.599H6.89941ZM6.89941 15.8861V15.9861H10.543V15.8861V15.7861H6.89941V15.8861ZM10.543 15.8861L10.5429 15.9861C10.8227 15.9864 11.0493 16.2128 11.0494 16.4926L11.1494 16.4926L11.2494 16.4925C11.2492 16.1023 10.9332 15.7864 10.5431 15.7861L10.543 15.8861ZM11.1494 16.4926H11.0494C11.0494 16.7726 10.8227 16.9997 10.5429 17L10.543 17.1L10.5431 17.2C10.9334 17.1996 11.2494 16.8828 11.2494 16.4926H11.1494ZM10.543 17.1V17H2.04297V17.1V17.2H10.543V17.1ZM2.04297 17.1L2.04299 17C1.76291 16.9999 1.53555 16.7726 1.53555 16.4926H1.43555H1.33555C1.33555 16.8831 1.65248 17.1999 2.04295 17.2L2.04297 17.1ZM1.43555 16.4926L1.53555 16.4926C1.53567 16.2128 1.76284 15.9862 2.04299 15.9861L2.04297 15.8861L2.04295 15.7861C1.65273 15.7862 1.33572 16.102 1.33555 16.4925L1.43555 16.4926ZM2.04297 15.8861V15.9861H5.68555V15.8861V15.7861H2.04297V15.8861ZM5.68555 15.8861H5.78555V14.6713H5.68555H5.58555V15.8861H5.68555ZM5.68555 14.6713L5.69355 14.5716C2.58349 14.322 0.18961 11.7203 0.199609 8.6003L0.0996094 8.59998L-0.000390112 8.59966C-0.0107239 11.8242 2.46334 14.513 5.67755 14.7709L5.68555 14.6713ZM0.0996094 8.59998H0.199609C0.199609 8.31989 0.426944 8.09255 0.707031 8.09255V7.99255V7.89255C0.316487 7.89255 -0.000390515 8.20943 -0.000390626 8.59998H0.0996094ZM0.707031 7.99255L0.706997 8.09255C0.986837 8.09265 1.21348 8.31979 1.21348 8.59998H1.31348H1.41348C1.41348 8.20968 1.09766 7.89269 0.707066 7.89255L0.707031 7.99255ZM1.31348 8.59998L1.21348 8.59998C1.21364 11.3376 3.43337 13.5563 6.17089 13.5564L6.1709 13.4564L6.1709 13.3564C3.54378 13.3563 1.41363 11.2271 1.41348 8.59997L1.31348 8.59998ZM6.1709 13.4564V13.5564C8.90852 13.5564 11.1282 11.3376 11.1283 8.59998L11.0283 8.59998L10.9283 8.59997C10.9282 11.2271 8.79811 13.3564 6.1709 13.3564V13.4564ZM11.0283 8.59998L11.1283 8.59996C11.1283 8.41872 11.2251 8.2508 11.382 8.16021L11.332 8.07361L11.282 7.98701C11.0632 8.11337 10.9283 8.34736 10.9283 8.59999L11.0283 8.59998ZM6.29199 0.0999756V0.199976C8.10112 0.199976 9.56797 1.66683 9.56797 3.47595H9.66797H9.76797C9.76797 1.55637 8.21158 -2.44156e-05 6.29199 -2.44156e-05V0.0999756ZM9.66797 3.47595H9.56797V8.86755H9.66797H9.76797V3.47595H9.66797ZM9.66797 8.86755L9.56797 8.86754C9.56773 10.6764 8.10099 12.1426 6.29199 12.1426V12.2426V12.3426C8.2114 12.3426 9.76771 10.787 9.76797 8.86757L9.66797 8.86755ZM6.29199 12.2426L6.292 12.1426C4.48318 12.1424 3.01723 10.6764 3.01699 8.86754L2.91699 8.86755L2.81699 8.86757C2.81725 10.7868 4.37271 12.3424 6.29198 12.3426L6.29199 12.2426ZM2.91699 8.86755H3.01699V3.47595H2.91699H2.81699V8.86755H2.91699ZM2.91699 3.47595H3.01699C3.01699 1.66691 4.48305 0.200153 6.292 0.199976L6.29199 0.0999756L6.29198 -2.44156e-05C4.37253 0.000163965 2.81699 1.55651 2.81699 3.47595H2.91699ZM6.29199 1.31384L6.29198 1.21384C5.04326 1.214 4.03103 2.22625 4.03086 3.47496L4.13086 3.47498L4.23086 3.47499C4.23101 2.33671 5.15373 1.41399 6.29201 1.41384L6.29199 1.31384ZM4.13086 3.47498H4.03086V8.86658H4.13086H4.23086V3.47498H4.13086ZM4.13086 8.86658H4.03086C4.03086 10.1154 5.04318 11.1276 6.29198 11.1277L6.29199 11.0277L6.29201 10.9277C5.15362 10.9276 4.23086 10.005 4.23086 8.86658H4.13086ZM6.29199 11.0277V11.1277C7.54089 11.1277 8.5541 10.1156 8.5541 8.86658H8.4541H8.3541C8.3541 10.005 7.43055 10.9277 6.29199 10.9277V11.0277ZM8.4541 8.86658H8.5541V3.47498H8.4541H8.3541V8.86658H8.4541ZM8.4541 3.47498L8.5541 3.47496C8.55393 2.22611 7.5408 1.21384 6.29199 1.21384V1.31384V1.41384C7.43043 1.41384 8.35395 2.33666 8.3541 3.47499L8.4541 3.47498Z" fill="#969696"/>
</svg>